<svg width="777" height="171" viewBox="0 0 777 171" fill="none" xmlns="http://www.w3.org/2000/svg">
<path d="M78.3199 108.86L42.1599 130.74C40.6599 131.65 40.1799 133.6 41.0899 135.1L60.4499 167.09C62.3899 170.29 66.5599 171.32 69.7599 169.38L104.47 148.38L80.9499 109.5C80.3999 108.6 79.2199 108.31 78.3199 108.86Z" fill="#EF3F2D"/>
<path d="M91.5798 66.2801C91.0398 65.3801 89.8598 65.0901 88.9598 65.6401L83.2698 69.0801L25.8698 103.81C24.3698 104.72 23.8898 106.67 24.7998 108.17L34.2898 123.86C35.1998 125.36 37.1498 125.84 38.6498 124.93L79.2698 100.35C80.9098 99.3601 83.0498 99.8801 84.0398 101.52L108.62 142.14C109.53 143.64 111.48 144.12 112.98 143.21L128.67 133.72C130.17 132.81 130.65 130.86 129.74 129.36L91.5798 66.2801Z" fill="#EF3F2D"/>
<path d="M92.8799 55.3401L125.73 35.4601C127.23 34.5501 127.71 32.6001 126.8 31.1001L110.43 4.05008C108.49 0.850085 104.32 -0.179924 101.12 1.76008L3.54989 60.8001C0.549886 62.6201 -0.410114 66.5201 1.39989 69.5301L17.9999 96.9301C18.9099 98.4301 20.8599 98.9101 22.3599 98.0001L79.7599 63.2701L92.8799 55.3401Z" fill="#EF3F2D"/>
<path d="M169.48 101.62L133.61 42.33C132.7 40.83 130.75 40.35 129.25 41.26L98.0298 60.15C97.1298 60.69 96.8398 61.87 97.3898 62.77L135.56 125.86C136.47 127.36 138.42 127.84 139.92 126.93L167.34 110.34C170.33 108.53 171.29 104.62 169.48 101.62Z" fill="#EF3F2D"/>
<path d="M764.34 60.0701C766.25 60.0701 767.95 60.3901 769.44 61.0301C770.92 61.6701 772.17 62.5401 773.17 63.6401C774.17 64.7401 774.93 66.0101 775.46 67.4701C775.99 68.9201 776.25 70.4701 776.25 72.1201C776.25 73.7501 775.99 75.2901 775.46 76.7501C774.93 78.2101 774.17 79.4901 773.17 80.5901C772.17 81.6901 770.93 82.5601 769.44 83.2001C767.96 83.8401 766.26 84.1601 764.34 84.1601C762.42 84.1601 760.73 83.8401 759.26 83.2001C757.79 82.5601 756.54 81.6901 755.53 80.5901C754.52 79.4901 753.75 78.2101 753.22 76.7501C752.69 75.2901 752.43 73.7401 752.43 72.1201C752.43 70.4701 752.69 68.9201 753.22 67.4701C753.75 66.0201 754.52 64.7401 755.53 63.6401C756.54 62.5401 757.78 61.6701 759.26 61.0301C760.74 60.3901 762.43 60.0701 764.34 60.0701ZM754.95 72.0401C754.95 73.4001 755.16 74.6801 755.58 75.8801C756 77.0801 756.61 78.1201 757.41 79.0101C758.21 79.9001 759.2 80.6001 760.36 81.1001C761.53 81.6101 762.86 81.86 764.35 81.86C765.84 81.86 767.18 81.6101 768.36 81.1001C769.54 80.5901 770.53 79.9001 771.33 79.0101C772.13 78.1201 772.74 77.0801 773.16 75.8901C773.58 74.7001 773.79 73.4301 773.79 72.0601C773.79 70.7001 773.58 69.4201 773.16 68.2201C772.74 67.0201 772.13 65.9801 771.33 65.0901C770.53 64.2001 769.54 63.5001 768.36 63.0001C767.18 62.4901 765.85 62.2401 764.35 62.2401C762.85 62.2401 761.52 62.4901 760.36 63.0001C759.19 63.5101 758.21 64.2001 757.41 65.0901C756.61 65.9801 756 67.0201 755.58 68.2201C755.16 69.4201 754.95 70.7101 754.95 72.1001V72.0401ZM766.62 73.5201L770.15 77.6401V78.1001H767.64L764.21 73.8101H762.07V78.1001H759.79V65.7301H765.46C766.36 65.7301 767.12 65.9101 767.74 66.2601C768.36 66.6101 768.84 67.05 769.19 67.58C769.54 68.11 769.75 68.7001 769.82 69.3401C769.89 69.9901 769.81 70.6001 769.61 71.1701C769.4 71.7401 769.05 72.2501 768.55 72.6901C768.06 73.1301 767.41 73.42 766.62 73.55V73.5201V73.5201ZM762.07 67.8801V71.8701H765.4C766.1 71.8701 766.64 71.6601 767 71.2401C767.36 70.8201 767.54 70.3701 767.54 69.8701C767.54 69.3701 767.37 68.9201 767.03 68.5001C766.69 68.0801 766.17 67.8701 765.46 67.8701H762.07V67.8801Z" fill="#010101"/>
<path d="M274.54 72.4901V107.12C274.54 109.04 276.09 110.59 278.01 110.59H284.15H307.12C308 110.59 308.71 109.88 308.71 109V104.82C308.71 103.5 307.64 102.44 306.33 102.44H284.16V92.3701H302.47C303.79 92.3701 304.85 91.3001 304.85 89.9901V86.6001C304.85 85.2801 303.78 84.2201 302.47 84.2201H284.16V75.4301C284.16 74.5501 284.87 73.8401 285.75 73.8401H306.33C307.65 73.8401 308.71 72.7701 308.71 71.4601V68.0701C308.71 66.7501 307.64 65.6901 306.33 65.6901L281.36 65.7001C277.59 65.6801 274.54 68.7301 274.54 72.4901Z" fill="#010101"/>
<path d="M330.2 73.8401H341.71V109.02C341.71 109.9 342.42 110.61 343.3 110.61H349.73C350.61 110.61 351.32 109.9 351.32 109.02V73.8401H362.83C364.15 73.8401 365.21 72.7701 365.21 71.4601V68.0701C365.21 66.7501 364.14 65.6901 362.83 65.6901H330.2C328.88 65.6901 327.82 66.7601 327.82 68.0701V71.4601C327.82 72.7701 328.88 73.8401 330.2 73.8401Z" fill="#010101"/>
<path d="M382.55 73.8401H394.06V109.02C394.06 109.9 394.77 110.61 395.65 110.61H402.08C402.96 110.61 403.67 109.9 403.67 109.02V73.8401H415.18C416.5 73.8401 417.56 72.7701 417.56 71.4601V68.0701C417.56 66.7501 416.49 65.6901 415.18 65.6901H382.55C381.23 65.6901 380.17 66.7601 380.17 68.0701V71.4601C380.16 72.7701 381.23 73.8401 382.55 73.8401Z" fill="#010101"/>
<path d="M467.34 72.51V109.02C467.34 109.9 468.05 110.61 468.93 110.61H475.36C476.24 110.61 476.95 109.9 476.95 109.02V92.78H494.6C495.92 92.78 496.98 91.71 496.98 90.4V87.01C496.98 85.69 495.91 84.63 494.6 84.63H476.95V75.44C476.95 74.56 477.66 73.85 478.54 73.85H498.45C499.77 73.85 500.83 72.78 500.83 71.47V68.08C500.83 66.76 499.76 65.7 498.45 65.7H474.16C470.39 65.68 467.34 68.74 467.34 72.51Z" fill="#010101"/>
<path d="M549.91 90.8601C552.05 89.7501 553.7 88.1801 554.87 86.1501C556.04 84.1201 556.62 81.7701 556.62 79.0901C556.62 76.4101 556.04 74.0602 554.87 72.0302C553.7 70.0002 552.05 68.4302 549.92 67.3202C547.79 66.2102 545.32 65.6501 542.52 65.6501L526.86 65.6702C523.16 65.6802 520.17 68.6701 520.17 72.3701V109.02C520.17 109.9 520.88 110.61 521.76 110.61H528.19C529.07 110.61 529.78 109.9 529.78 109.02V92.5302H535.61L546.64 109.87C546.93 110.33 547.44 110.61 547.98 110.61H555.8C557.07 110.61 557.82 109.2 557.13 108.15L546.56 92.0901C547.76 91.8101 548.87 91.4001 549.91 90.8601ZM529.79 75.4001C529.79 74.5201 530.5 73.8102 531.38 73.8102H541.75C542.76 73.8102 543.63 74.0301 544.38 74.4601C545.13 74.8901 545.71 75.5102 546.12 76.3102C546.53 77.1102 546.73 78.0401 546.73 79.0901C546.71 80.1401 546.49 81.0701 546.08 81.8701C545.67 82.6701 545.09 83.2902 544.34 83.7202C543.59 84.1502 542.73 84.3701 541.74 84.3701H529.78V75.4001H529.79Z" fill="#010101"/>
<path d="M603.43 67.2701C600.61 65.9001 597.36 65.2201 593.66 65.2201C589.96 65.2201 586.71 65.9101 583.89 67.2701C581.07 68.6401 578.89 70.5801 577.35 73.0801C575.81 75.5801 575.03 78.4801 575.03 81.7801V94.5101C575.03 97.8101 575.8 100.71 577.35 103.21C578.89 105.71 581.07 107.65 583.89 109.02C586.71 110.39 589.96 111.07 593.66 111.07C597.35 111.07 600.61 110.39 603.43 109.02C606.25 107.65 608.43 105.71 609.97 103.21C611.51 100.71 612.29 97.8101 612.29 94.5101V81.7801C612.29 78.4801 611.52 75.5801 609.97 73.0801C608.42 70.5801 606.24 68.6401 603.43 67.2701ZM602.32 94.7201C602.32 96.2901 601.96 97.6701 601.25 98.8601C600.54 100.05 599.52 100.98 598.22 101.63C596.91 102.28 595.39 102.6 593.66 102.6C591.93 102.6 590.41 102.28 589.1 101.63C587.79 100.98 586.78 100.06 586.07 98.8601C585.36 97.6701 585 96.2901 585 94.7201V81.5601C585 79.9901 585.36 78.6101 586.07 77.4201C586.78 76.2301 587.79 75.3001 589.1 74.6501C590.41 74.0001 591.93 73.6801 593.66 73.6801C595.39 73.6801 596.91 74.0001 598.22 74.6501C599.53 75.3001 600.54 76.2201 601.25 77.4201C601.96 78.6101 602.32 80.0001 602.32 81.5601V94.7201Z" fill="#010101"/>
<path d="M726.93 65.6801H694.3C692.98 65.6801 691.92 66.7501 691.92 68.0601V71.4501C691.92 72.7701 692.99 73.83 694.3 73.83H705.81V109.01C705.81 109.89 706.52 110.6 707.4 110.6H713.83C714.71 110.6 715.42 109.89 715.42 109.01V73.83H726.93C728.25 73.83 729.31 72.7601 729.31 71.4501V68.0601C729.31 66.7501 728.24 65.6801 726.93 65.6801Z" fill="#010101"/>
<path d="M212.83 107.41V72.5101C212.83 68.7401 215.88 65.6901 219.65 65.6901C220.04 65.6901 220.45 65.6901 220.88 65.6901C225.09 65.6901 227.75 66.62 230.86 73.36L241.95 98.2601C242.3 99.0501 242.57 99.3 242.99 99.3C243.58 99.3 243.75 98.8901 243.75 98.0601L243.61 68.8801C243.61 66.8401 244.75 65.7001 246.79 65.7001H249.9C251.65 65.7001 253.08 67.1201 253.08 68.8801V103.7C253.08 107.51 250 110.6 246.18 110.6C245.81 110.6 245.43 110.6 245.03 110.6C240.82 110.6 238.16 109.67 235.05 102.93L223.96 78.0301C223.61 77.2401 223.34 76.9901 222.92 76.9901C222.33 76.9901 222.16 77.4001 222.16 78.2301L222.3 107.41C222.3 109.45 221.16 110.59 219.12 110.59H216.01C214.25 110.59 212.83 109.17 212.83 107.41Z" fill="#010101"/>
<path d="M633.11 107.41V72.5101C633.11 68.7401 636.16 65.6901 639.93 65.6901C640.32 65.6901 640.73 65.6901 641.16 65.6901C645.37 65.6901 648.03 66.62 651.14 73.36L662.23 98.2601C662.58 99.0501 662.85 99.3 663.27 99.3C663.86 99.3 664.03 98.8901 664.03 98.0601L663.89 68.8801C663.89 66.8401 665.03 65.7001 667.07 65.7001H670.18C671.93 65.7001 673.36 67.1201 673.36 68.8801V103.7C673.36 107.51 670.28 110.6 666.46 110.6C666.09 110.6 665.71 110.6 665.31 110.6C661.1 110.6 658.44 109.67 655.33 102.93L644.24 78.0301C643.89 77.2401 643.62 76.9901 643.2 76.9901C642.61 76.9901 642.44 77.4001 642.44 78.2301L642.58 107.41C642.58 109.45 641.44 110.59 639.4 110.59H636.29C634.54 110.59 633.11 109.17 633.11 107.41Z" fill="#010101"/>
</svg>
